<svg width="237" height="139" viewBox="0 0 237 139" fill="none" xmlns="http://www.w3.org/2000/svg">
<rect width="237" height="139" fill="#1E1E1E"/>
<rect width="237" height="139" fill="black"/>
<g clip-path="url(#clip0_0_1)">
<path d="M84 35H198C203.523 35 208 39.4772 208 45V71C208 76.5228 203.523 81 198 81H94C88.4772 81 84 76.5228 84 71V35Z" fill="url(#paint0_linear_0_1)"/>
<path d="M21.5684 99V90.2727H27.3468V91.794H23.4135V93.8736H26.9633V95.3949H23.4135V99H21.5684ZM30.0983 99.1236C29.6806 99.1236 29.3085 99.0511 28.9818 98.9062C28.6551 98.7585 28.3965 98.5412 28.2062 98.2543C28.0187 97.9645 27.925 97.6037 27.925 97.1719C27.925 96.8082 27.9917 96.5028 28.1252 96.2557C28.2588 96.0085 28.4406 95.8097 28.6707 95.6591C28.9008 95.5085 29.1622 95.3949 29.4548 95.3182C29.7502 95.2415 30.0599 95.1875 30.3838 95.1562C30.7644 95.1165 31.0713 95.0795 31.3042 95.0455C31.5372 95.0085 31.7062 94.9545 31.8113 94.8835C31.9164 94.8125 31.969 94.7074 31.969 94.5682V94.5426C31.969 94.2727 31.8838 94.0639 31.7133 93.9162C31.5457 93.7685 31.3071 93.6946 30.9974 93.6946C30.6707 93.6946 30.4108 93.767 30.2176 93.9119C30.0244 94.054 29.8965 94.233 29.834 94.4489L28.1551 94.3125C28.2403 93.9148 28.4079 93.571 28.6579 93.2812C28.9079 92.9886 29.2304 92.7642 29.6252 92.608C30.023 92.4489 30.4832 92.3693 31.0059 92.3693C31.3696 92.3693 31.7176 92.4119 32.05 92.4972C32.3852 92.5824 32.6821 92.7145 32.9406 92.8935C33.2019 93.0724 33.4079 93.3026 33.5585 93.5838C33.709 93.8622 33.7843 94.196 33.7843 94.5852V99H32.0627V98.0923H32.0116C31.9065 98.2969 31.7659 98.4773 31.5897 98.6335C31.4136 98.7869 31.2019 98.9077 30.9548 98.9957C30.7076 99.081 30.4221 99.1236 30.0983 99.1236ZM30.6181 97.8707C30.8852 97.8707 31.121 97.8182 31.3255 97.7131C31.5301 97.6051 31.6906 97.4602 31.8071 97.2784C31.9235 97.0966 31.9818 96.8906 31.9818 96.6605V95.9659C31.925 96.0028 31.8468 96.0369 31.7474 96.0682C31.6508 96.0966 31.5414 96.1236 31.4193 96.1491C31.2971 96.1719 31.175 96.1932 31.0528 96.2131C30.9306 96.2301 30.8198 96.2457 30.7204 96.2599C30.5073 96.2912 30.3213 96.3409 30.1622 96.4091C30.0031 96.4773 29.8795 96.5696 29.7914 96.6861C29.7034 96.7997 29.6593 96.9418 29.6593 97.1122C29.6593 97.3594 29.7488 97.5483 29.9278 97.679C30.1096 97.8068 30.3397 97.8707 30.6181 97.8707ZM37.9101 99.1278C37.2396 99.1278 36.6629 98.9858 36.18 98.7017C35.6999 98.4148 35.3306 98.017 35.072 97.5085C34.8164 97 34.6885 96.4148 34.6885 95.7528C34.6885 95.0824 34.8178 94.4943 35.0763 93.9886C35.3377 93.4801 35.7084 93.0838 36.1885 92.7997C36.6686 92.5128 37.2396 92.3693 37.9016 92.3693C38.4726 92.3693 38.9726 92.473 39.4016 92.6804C39.8306 92.8878 40.17 93.179 40.42 93.554C40.67 93.929 40.8078 94.3693 40.8334 94.875H39.1203C39.072 94.5483 38.9442 94.2855 38.7368 94.0866C38.5323 93.8849 38.2638 93.7841 37.9314 93.7841C37.6502 93.7841 37.4044 93.8608 37.1942 94.0142C36.9868 94.1648 36.8249 94.3849 36.7084 94.6747C36.5919 94.9645 36.5337 95.3153 36.5337 95.7273C36.5337 96.1449 36.5905 96.5 36.7041 96.7926C36.8206 97.0852 36.984 97.3082 37.1942 97.4616C37.4044 97.6151 37.6502 97.6918 37.9314 97.6918C38.1388 97.6918 38.3249 97.6491 38.4896 97.5639C38.6573 97.4787 38.795 97.3551 38.903 97.1932C39.0138 97.0284 39.0862 96.831 39.1203 96.6009H40.8334C40.805 97.1009 40.6686 97.5412 40.4243 97.9219C40.1828 98.2997 39.849 98.5952 39.4229 98.8082C38.9967 99.0213 38.4925 99.1278 37.9101 99.1278ZM41.7557 99V92.4545H43.571V99H41.7557ZM42.6676 91.6108C42.3977 91.6108 42.1662 91.5213 41.973 91.3423C41.7827 91.1605 41.6875 90.9432 41.6875 90.6903C41.6875 90.4403 41.7827 90.2259 41.973 90.0469C42.1662 89.8651 42.3977 89.7741 42.6676 89.7741C42.9375 89.7741 43.1676 89.8651 43.358 90.0469C43.5511 90.2259 43.6477 90.4403 43.6477 90.6903C43.6477 90.9432 43.5511 91.1605 43.358 91.3423C43.1676 91.5213 42.9375 91.6108 42.6676 91.6108ZM46.6006 90.2727V99H44.7852V90.2727H46.6006ZM47.8147 99V92.4545H49.6301V99H47.8147ZM48.7267 91.6108C48.4568 91.6108 48.2253 91.5213 48.0321 91.3423C47.8417 91.1605 47.7466 90.9432 47.7466 90.6903C47.7466 90.4403 47.8417 90.2259 48.0321 90.0469C48.2253 89.8651 48.4568 89.7741 48.7267 89.7741C48.9966 89.7741 49.2267 89.8651 49.417 90.0469C49.6102 90.2259 49.7068 90.4403 49.7068 90.6903C49.7068 90.9432 49.6102 91.1605 49.417 91.3423C49.2267 91.5213 48.9966 91.6108 48.7267 91.6108ZM54.3258 92.4545V93.8182H50.384V92.4545H54.3258ZM51.2789 90.8864H53.0943V96.9886C53.0943 97.1562 53.1198 97.2869 53.171 97.3807C53.2221 97.4716 53.2931 97.5355 53.384 97.5724C53.4778 97.6094 53.5858 97.6278 53.7079 97.6278C53.7931 97.6278 53.8784 97.6207 53.9636 97.6065C54.0488 97.5895 54.1142 97.5767 54.1596 97.5682L54.4451 98.919C54.3542 98.9474 54.2264 98.9801 54.0616 99.017C53.8968 99.0568 53.6965 99.081 53.4608 99.0895C53.0233 99.1065 52.6397 99.0483 52.3102 98.9148C51.9835 98.7812 51.7292 98.5739 51.5474 98.2926C51.3656 98.0114 51.2761 97.6562 51.2789 97.2273V90.8864ZM57.1348 99.1236C56.7172 99.1236 56.345 99.0511 56.0183 98.9062C55.6916 98.7585 55.4331 98.5412 55.2428 98.2543C55.0553 97.9645 54.9615 97.6037 54.9615 97.1719C54.9615 96.8082 55.0283 96.5028 55.1618 96.2557C55.2953 96.0085 55.4771 95.8097 55.7073 95.6591C55.9374 95.5085 56.1987 95.3949 56.4914 95.3182C56.7868 95.2415 57.0965 95.1875 57.4203 95.1562C57.801 95.1165 58.1078 95.0795 58.3408 95.0455C58.5737 95.0085 58.7428 94.9545 58.8479 94.8835C58.953 94.8125 59.0056 94.7074 59.0056 94.5682V94.5426C59.0056 94.2727 58.9203 94.0639 58.7499 93.9162C58.5823 93.7685 58.3436 93.6946 58.034 93.6946C57.7073 93.6946 57.4473 93.767 57.2541 93.9119C57.061 94.054 56.9331 94.233 56.8706 94.4489L55.1916 94.3125C55.2769 93.9148 55.4445 93.571 55.6945 93.2812C55.9445 92.9886 56.2669 92.7642 56.6618 92.608C57.0595 92.4489 57.5198 92.3693 58.0425 92.3693C58.4061 92.3693 58.7541 92.4119 59.0865 92.4972C59.4217 92.5824 59.7186 92.7145 59.9771 92.8935C60.2385 93.0724 60.4445 93.3026 60.595 93.5838C60.7456 93.8622 60.8209 94.196 60.8209 94.5852V99H59.0993V98.0923H59.0482C58.9431 98.2969 58.8024 98.4773 58.6263 98.6335C58.4502 98.7869 58.2385 98.9077 57.9914 98.9957C57.7442 99.081 57.4587 99.1236 57.1348 99.1236ZM57.6547 97.8707C57.9217 97.8707 58.1575 97.8182 58.3621 97.7131C58.5666 97.6051 58.7271 97.4602 58.8436 97.2784C58.9601 97.0966 59.0183 96.8906 59.0183 96.6605V95.9659C58.9615 96.0028 58.8834 96.0369 58.784 96.0682C58.6874 96.0966 58.578 96.1236 58.4558 96.1491C58.3337 96.1719 58.2115 96.1932 58.0894 96.2131C57.9672 96.2301 57.8564 96.2457 57.757 96.2599C57.5439 96.2912 57.3578 96.3409 57.1987 96.4091C57.0396 96.4773 56.9161 96.5696 56.828 96.6861C56.7399 96.7997 56.6959 96.9418 56.6959 97.1122C56.6959 97.3594 56.7854 97.5483 56.9644 97.679C57.1462 97.8068 57.3763 97.8707 57.6547 97.8707ZM61.9893 99V92.4545H63.7492V93.5966H63.8174C63.9367 93.1903 64.137 92.8835 64.4183 92.6761C64.6995 92.4659 65.0234 92.3608 65.3898 92.3608C65.4808 92.3608 65.5788 92.3665 65.6839 92.3778C65.789 92.3892 65.8813 92.4048 65.9609 92.4247V94.0355C65.8756 94.0099 65.7577 93.9872 65.6072 93.9673C65.4566 93.9474 65.3188 93.9375 65.1938 93.9375C64.9268 93.9375 64.6881 93.9957 64.4779 94.1122C64.2705 94.2259 64.1058 94.3849 63.9836 94.5895C63.8643 94.794 63.8046 95.0298 63.8046 95.2969V99H61.9893ZM72.1797 99.1278C71.5064 99.1278 70.9269 98.9915 70.4411 98.7188C69.9581 98.4432 69.586 98.054 69.3246 97.5511C69.0633 97.0455 68.9326 96.4474 68.9326 95.7571C68.9326 95.0838 69.0633 94.4929 69.3246 93.9844C69.586 93.4759 69.9539 93.0795 70.4283 92.7955C70.9056 92.5114 71.4652 92.3693 72.1073 92.3693C72.5391 92.3693 72.9411 92.4389 73.3133 92.5781C73.6883 92.7145 74.015 92.9205 74.2934 93.196C74.5746 93.4716 74.7934 93.8182 74.9496 94.2358C75.1059 94.6506 75.184 95.1364 75.184 95.6932V96.1918H69.657V95.0668H73.4752C73.4752 94.8054 73.4184 94.5739 73.3047 94.3722C73.1911 94.1705 73.0334 94.0128 72.8317 93.8991C72.6329 93.7827 72.4013 93.7244 72.1371 93.7244C71.8615 93.7244 71.6172 93.7884 71.4042 93.9162C71.1939 94.0412 71.0292 94.2102 70.9098 94.4233C70.7905 94.6335 70.7294 94.8679 70.7266 95.1264V96.196C70.7266 96.5199 70.7863 96.7997 70.9056 97.0355C71.0277 97.2713 71.1996 97.4531 71.4212 97.581C71.6428 97.7088 71.9056 97.7727 72.2096 97.7727C72.4113 97.7727 72.5959 97.7443 72.7635 97.6875C72.9312 97.6307 73.0746 97.5455 73.1939 97.4318C73.3133 97.3182 73.4042 97.179 73.4667 97.0142L75.1456 97.125C75.0604 97.5284 74.8857 97.8807 74.6215 98.1818C74.3601 98.4801 74.0221 98.7131 73.6073 98.8807C73.1954 99.0455 72.7195 99.1278 72.1797 99.1278ZM71.4127 91.6108L72.3161 89.6719H73.9951L72.6954 91.6108H71.4127ZM80.4813 95.2159V99H78.666V92.4545H80.3961V93.6094H80.4728C80.6177 93.2287 80.8606 92.9276 81.2015 92.706C81.5424 92.4815 81.9558 92.3693 82.4416 92.3693C82.8961 92.3693 83.2924 92.4688 83.6305 92.6676C83.9685 92.8665 84.2313 93.1506 84.4188 93.5199C84.6063 93.8864 84.7001 94.3239 84.7001 94.8324V99H82.8847V95.1562C82.8876 94.7557 82.7853 94.4432 82.5779 94.2188C82.3705 93.9915 82.085 93.8778 81.7214 93.8778C81.4771 93.8778 81.2612 93.9304 81.0737 94.0355C80.889 94.1406 80.7441 94.294 80.639 94.4957C80.5367 94.6946 80.4842 94.9347 80.4813 95.2159ZM88.8482 99.1278C88.1863 99.1278 87.6138 98.9872 87.1309 98.706C86.6508 98.4219 86.28 98.027 86.0187 97.5213C85.7573 97.0128 85.6266 96.4233 85.6266 95.7528C85.6266 95.0767 85.7573 94.4858 86.0187 93.9801C86.28 93.4716 86.6508 93.0767 87.1309 92.7955C87.6138 92.5114 88.1863 92.3693 88.8482 92.3693C89.5102 92.3693 90.0812 92.5114 90.5613 92.7955C91.0442 93.0767 91.4164 93.4716 91.6778 93.9801C91.9391 94.4858 92.0698 95.0767 92.0698 95.7528C92.0698 96.4233 91.9391 97.0128 91.6778 97.5213C91.4164 98.027 91.0442 98.4219 90.5613 98.706C90.0812 98.9872 89.5102 99.1278 88.8482 99.1278ZM88.8567 97.7216C89.1579 97.7216 89.4093 97.6364 89.611 97.4659C89.8127 97.2926 89.9647 97.0568 90.067 96.7585C90.1721 96.4602 90.2246 96.1207 90.2246 95.7401C90.2246 95.3594 90.1721 95.0199 90.067 94.7216C89.9647 94.4233 89.8127 94.1875 89.611 94.0142C89.4093 93.8409 89.1579 93.7543 88.8567 93.7543C88.5528 93.7543 88.2971 93.8409 88.0897 94.0142C87.8852 94.1875 87.7303 94.4233 87.6252 94.7216C87.5229 95.0199 87.4718 95.3594 87.4718 95.7401C87.4718 96.1207 87.5229 96.4602 87.6252 96.7585C87.7303 97.0568 87.8852 97.2926 88.0897 97.4659C88.2971 97.6364 88.5528 97.7216 88.8567 97.7216ZM98.4562 94.321L96.7943 94.4233C96.7659 94.2812 96.7048 94.1534 96.6111 94.0398C96.5173 93.9233 96.3937 93.831 96.2403 93.7628C96.0898 93.6918 95.9094 93.6562 95.6991 93.6562C95.4179 93.6562 95.1807 93.7159 94.9875 93.8352C94.7943 93.9517 94.6977 94.108 94.6977 94.304C94.6977 94.4602 94.7602 94.5923 94.8852 94.7003C95.0102 94.8082 95.2247 94.8949 95.5287 94.9602L96.7133 95.1989C97.3497 95.3295 97.8241 95.5398 98.1366 95.8295C98.4491 96.1193 98.6054 96.5 98.6054 96.9716C98.6054 97.4006 98.479 97.777 98.2261 98.1009C97.9761 98.4247 97.6324 98.6776 97.1949 98.8594C96.7602 99.0384 96.2588 99.1278 95.6906 99.1278C94.8241 99.1278 94.1338 98.9474 93.6196 98.5866C93.1082 98.223 92.8085 97.7287 92.7204 97.1037L94.506 97.0099C94.5599 97.2741 94.6906 97.4759 94.898 97.6151C95.1054 97.7514 95.371 97.8196 95.6949 97.8196C96.0131 97.8196 96.2687 97.7585 96.4619 97.6364C96.6579 97.5114 96.7574 97.3509 96.7602 97.1548C96.7574 96.9901 96.6878 96.8551 96.5514 96.75C96.415 96.642 96.2048 96.5597 95.9207 96.5028L94.7872 96.277C94.148 96.1491 93.6721 95.9276 93.3596 95.6122C93.05 95.2969 92.8952 94.8949 92.8952 94.4062C92.8952 93.9858 93.0088 93.6236 93.2361 93.3196C93.4662 93.0156 93.7886 92.7812 94.2034 92.6165C94.621 92.4517 95.1096 92.3693 95.6693 92.3693C96.496 92.3693 97.1466 92.544 97.621 92.8935C98.0983 93.2429 98.3767 93.7187 98.4562 94.321ZM104.955 94.321L103.293 94.4233C103.264 94.2812 103.203 94.1534 103.109 94.0398C103.016 93.9233 102.892 93.831 102.739 93.7628C102.588 93.6918 102.408 93.6562 102.197 93.6562C101.916 93.6562 101.679 93.7159 101.486 93.8352C101.293 93.9517 101.196 94.108 101.196 94.304C101.196 94.4602 101.258 94.5923 101.383 94.7003C101.508 94.8082 101.723 94.8949 102.027 94.9602L103.212 95.1989C103.848 95.3295 104.322 95.5398 104.635 95.8295C104.947 96.1193 105.104 96.5 105.104 96.9716C105.104 97.4006 104.977 97.777 104.724 98.1009C104.474 98.4247 104.131 98.6776 103.693 98.8594C103.258 99.0384 102.757 99.1278 102.189 99.1278C101.322 99.1278 100.632 98.9474 100.118 98.5866C99.6065 98.223 99.3068 97.7287 99.2187 97.1037L101.004 97.0099C101.058 97.2741 101.189 97.4759 101.396 97.6151C101.604 97.7514 101.869 97.8196 102.193 97.8196C102.511 97.8196 102.767 97.7585 102.96 97.6364C103.156 97.5114 103.256 97.3509 103.258 97.1548C103.256 96.9901 103.186 96.8551 103.05 96.75C102.913 96.642 102.703 96.5597 102.419 96.5028L101.285 96.277C100.646 96.1491 100.17 95.9276 99.8579 95.6122C99.5483 95.2969 99.3934 94.8949 99.3934 94.4062C99.3934 93.9858 99.5071 93.6236 99.7343 93.3196C99.9645 93.0156 100.287 92.7812 100.702 92.6165C101.119 92.4517 101.608 92.3693 102.168 92.3693C102.994 92.3693 103.645 92.544 104.119 92.8935C104.597 93.2429 104.875 93.7187 104.955 94.321ZM107.873 99.1236C107.456 99.1236 107.083 99.0511 106.757 98.9062C106.43 98.7585 106.172 98.5412 105.981 98.2543C105.794 97.9645 105.7 97.6037 105.7 97.1719C105.7 96.8082 105.767 96.5028 105.9 96.2557C106.034 96.0085 106.216 95.8097 106.446 95.6591C106.676 95.5085 106.937 95.3949 107.23 95.3182C107.525 95.2415 107.835 95.1875 108.159 95.1562C108.539 95.1165 108.846 95.0795 109.079 95.0455C109.312 95.0085 109.481 94.9545 109.586 94.8835C109.691 94.8125 109.744 94.7074 109.744 94.5682V94.5426C109.744 94.2727 109.659 94.0639 109.488 93.9162C109.321 93.7685 109.082 93.6946 108.772 93.6946C108.446 93.6946 108.186 93.767 107.993 93.9119C107.799 94.054 107.672 94.233 107.609 94.4489L105.93 94.3125C106.015 93.9148 106.183 93.571 106.433 93.2812C106.683 92.9886 107.005 92.7642 107.4 92.608C107.798 92.4489 108.258 92.3693 108.781 92.3693C109.145 92.3693 109.493 92.4119 109.825 92.4972C110.16 92.5824 110.457 92.7145 110.716 92.8935C110.977 93.0724 111.183 93.3026 111.333 93.5838C111.484 93.8622 111.559 94.196 111.559 94.5852V99H109.838V98.0923H109.787C109.681 98.2969 109.541 98.4773 109.365 98.6335C109.189 98.7869 108.977 98.9077 108.73 98.9957C108.483 99.081 108.197 99.1236 107.873 99.1236ZM108.393 97.8707C108.66 97.8707 108.896 97.8182 109.101 97.7131C109.305 97.6051 109.466 97.4602 109.582 97.2784C109.699 97.0966 109.757 96.8906 109.757 96.6605V95.9659C109.7 96.0028 109.622 96.0369 109.522 96.0682C109.426 96.0966 109.316 96.1236 109.194 96.1491C109.072 96.1719 108.95 96.1932 108.828 96.2131C108.706 96.2301 108.595 96.2457 108.495 96.2599C108.282 96.2912 108.096 96.3409 107.937 96.4091C107.778 96.4773 107.655 96.5696 107.566 96.6861C107.478 96.7997 107.434 96.9418 107.434 97.1122C107.434 97.3594 107.524 97.5483 107.703 97.679C107.885 97.8068 108.115 97.8707 108.393 97.8707ZM118.248 99.1278C117.575 99.1278 116.995 98.9915 116.509 98.7188C116.026 98.4432 115.654 98.054 115.393 97.5511C115.132 97.0455 115.001 96.4474 115.001 95.7571C115.001 95.0838 115.132 94.4929 115.393 93.9844C115.654 93.4759 116.022 93.0795 116.497 92.7955C116.974 92.5114 117.534 92.3693 118.176 92.3693C118.607 92.3693 119.009 92.4389 119.382 92.5781C119.757 92.7145 120.083 92.9205 120.362 93.196C120.643 93.4716 120.862 93.8182 121.018 94.2358C121.174 94.6506 121.252 95.1364 121.252 95.6932V96.1918H115.725V95.0668H119.543C119.543 94.8054 119.487 94.5739 119.373 94.3722C119.259 94.1705 119.102 94.0128 118.9 93.8991C118.701 93.7827 118.47 93.7244 118.205 93.7244C117.93 93.7244 117.686 93.7884 117.472 93.9162C117.262 94.0412 117.097 94.2102 116.978 94.4233C116.859 94.6335 116.798 94.8679 116.795 95.1264V96.196C116.795 96.5199 116.855 96.7997 116.974 97.0355C117.096 97.2713 117.268 97.4531 117.489 97.581C117.711 97.7088 117.974 97.7727 118.278 97.7727C118.48 97.7727 118.664 97.7443 118.832 97.6875C118.999 97.6307 119.143 97.5455 119.262 97.4318C119.382 97.3182 119.472 97.179 119.535 97.0142L121.214 97.125C121.129 97.5284 120.954 97.8807 120.69 98.1818C120.428 98.4801 120.09 98.7131 119.676 98.8807C119.264 99.0455 118.788 99.1278 118.248 99.1278ZM127.643 94.321L125.981 94.4233C125.953 94.2812 125.892 94.1534 125.798 94.0398C125.704 93.9233 125.58 93.831 125.427 93.7628C125.276 93.6918 125.096 93.6562 124.886 93.6562C124.605 93.6562 124.367 93.7159 124.174 93.8352C123.981 93.9517 123.884 94.108 123.884 94.304C123.884 94.4602 123.947 94.5923 124.072 94.7003C124.197 94.8082 124.411 94.8949 124.715 94.9602L125.9 95.1989C126.536 95.3295 127.011 95.5398 127.323 95.8295C127.636 96.1193 127.792 96.5 127.792 96.9716C127.792 97.4006 127.666 97.777 127.413 98.1009C127.163 98.4247 126.819 98.6776 126.382 98.8594C125.947 99.0384 125.446 99.1278 124.877 99.1278C124.011 99.1278 123.321 98.9474 122.806 98.5866C122.295 98.223 121.995 97.7287 121.907 97.1037L123.693 97.0099C123.747 97.2741 123.877 97.4759 124.085 97.6151C124.292 97.7514 124.558 97.8196 124.882 97.8196C125.2 97.8196 125.455 97.7585 125.649 97.6364C125.845 97.5114 125.944 97.3509 125.947 97.1548C125.944 96.9901 125.874 96.8551 125.738 96.75C125.602 96.642 125.392 96.5597 125.107 96.5028L123.974 96.277C123.335 96.1491 122.859 95.9276 122.546 95.6122C122.237 95.2969 122.082 94.8949 122.082 94.4062C122.082 93.9858 122.196 93.6236 122.423 93.3196C122.653 93.0156 122.975 92.7812 123.39 92.6165C123.808 92.4517 124.296 92.3693 124.856 92.3693C125.683 92.3693 126.333 92.544 126.808 92.8935C127.285 93.2429 127.563 93.7187 127.643 94.321ZM128.695 101.455V92.4545H130.485V93.554H130.566C130.645 93.3778 130.761 93.1989 130.911 93.017C131.065 92.8324 131.263 92.679 131.508 92.5568C131.755 92.4318 132.062 92.3693 132.428 92.3693C132.905 92.3693 133.346 92.4943 133.749 92.7443C134.153 92.9915 134.475 93.3651 134.717 93.8651C134.958 94.3622 135.079 94.9858 135.079 95.7358C135.079 96.4659 134.961 97.0824 134.725 97.5852C134.492 98.0852 134.174 98.4645 133.77 98.723C133.37 98.9787 132.921 99.1065 132.424 99.1065C132.072 99.1065 131.772 99.0483 131.525 98.9318C131.28 98.8153 131.08 98.669 130.924 98.4929C130.768 98.3139 130.648 98.1335 130.566 97.9517H130.511V101.455H128.695ZM130.472 95.7273C130.472 96.1165 130.526 96.456 130.634 96.7457C130.742 97.0355 130.898 97.2614 131.103 97.4233C131.307 97.5824 131.556 97.6619 131.849 97.6619C132.144 97.6619 132.394 97.581 132.599 97.419C132.803 97.2543 132.958 97.027 133.063 96.7372C133.171 96.4446 133.225 96.108 133.225 95.7273C133.225 95.3494 133.172 95.017 133.067 94.7301C132.962 94.4432 132.807 94.2187 132.603 94.0568C132.398 93.8949 132.147 93.8139 131.849 93.8139C131.553 93.8139 131.303 93.892 131.099 94.0483C130.897 94.2045 130.742 94.4261 130.634 94.7131C130.526 95 130.472 95.3381 130.472 95.7273ZM139.032 99.1278C138.359 99.1278 137.779 98.9915 137.293 98.7188C136.81 98.4432 136.438 98.054 136.177 97.5511C135.915 97.0455 135.785 96.4474 135.785 95.7571C135.785 95.0838 135.915 94.4929 136.177 93.9844C136.438 93.4759 136.806 93.0795 137.28 92.7955C137.758 92.5114 138.317 92.3693 138.959 92.3693C139.391 92.3693 139.793 92.4389 140.165 92.5781C140.54 92.7145 140.867 92.9205 141.146 93.196C141.427 93.4716 141.646 93.8182 141.802 94.2358C141.958 94.6506 142.036 95.1364 142.036 95.6932V96.1918H136.509V95.0668H140.327C140.327 94.8054 140.271 94.5739 140.157 94.3722C140.043 94.1705 139.886 94.0128 139.684 93.8991C139.485 93.7827 139.254 93.7244 138.989 93.7244C138.714 93.7244 138.469 93.7884 138.256 93.9162C138.046 94.0412 137.881 94.2102 137.762 94.4233C137.643 94.6335 137.582 94.8679 137.579 95.1264V96.196C137.579 96.5199 137.638 96.7997 137.758 97.0355C137.88 97.2713 138.052 97.4531 138.273 97.581C138.495 97.7088 138.758 97.7727 139.062 97.7727C139.263 97.7727 139.448 97.7443 139.616 97.6875C139.783 97.6307 139.927 97.5455 140.046 97.4318C140.165 97.3182 140.256 97.179 140.319 97.0142L141.998 97.125C141.913 97.5284 141.738 97.8807 141.474 98.1818C141.212 98.4801 140.874 98.7131 140.459 98.8807C140.048 99.0455 139.572 99.1278 139.032 99.1278ZM145.938 99.1278C145.268 99.1278 144.691 98.9858 144.208 98.7017C143.728 98.4148 143.359 98.017 143.1 97.5085C142.844 97 142.717 96.4148 142.717 95.7528C142.717 95.0824 142.846 94.4943 143.104 93.9886C143.366 93.4801 143.737 93.0838 144.217 92.7997C144.697 92.5128 145.268 92.3693 145.93 92.3693C146.501 92.3693 147.001 92.473 147.43 92.6804C147.859 92.8878 148.198 93.179 148.448 93.554C148.698 93.929 148.836 94.3693 148.862 94.875H147.148C147.1 94.5483 146.972 94.2855 146.765 94.0866C146.56 93.8849 146.292 93.7841 145.96 93.7841C145.678 93.7841 145.433 93.8608 145.222 94.0142C145.015 94.1648 144.853 94.3849 144.737 94.6747C144.62 94.9645 144.562 95.3153 144.562 95.7273C144.562 96.1449 144.619 96.5 144.732 96.7926C144.849 97.0852 145.012 97.3082 145.222 97.4616C145.433 97.6151 145.678 97.6918 145.96 97.6918C146.167 97.6918 146.353 97.6491 146.518 97.5639C146.685 97.4787 146.823 97.3551 146.931 97.1932C147.042 97.0284 147.114 96.831 147.148 96.6009H148.862C148.833 97.1009 148.697 97.5412 148.452 97.9219C148.211 98.2997 147.877 98.5952 147.451 98.8082C147.025 99.0213 146.521 99.1278 145.938 99.1278ZM149.784 99V92.4545H151.599V99H149.784ZM150.696 91.6108C150.426 91.6108 150.194 91.5213 150.001 91.3423C149.811 91.1605 149.716 90.9432 149.716 90.6903C149.716 90.4403 149.811 90.2259 150.001 90.0469C150.194 89.8651 150.426 89.7741 150.696 89.7741C150.966 89.7741 151.196 89.8651 151.386 90.0469C151.579 90.2259 151.676 90.4403 151.676 90.6903C151.676 90.9432 151.579 91.1605 151.386 91.3423C151.196 91.5213 150.966 91.6108 150.696 91.6108ZM154.68 99.1236C154.262 99.1236 153.89 99.0511 153.563 98.9062C153.237 98.7585 152.978 98.5412 152.788 98.2543C152.6 97.9645 152.507 97.6037 152.507 97.1719C152.507 96.8082 152.573 96.5028 152.707 96.2557C152.84 96.0085 153.022 95.8097 153.252 95.6591C153.482 95.5085 153.744 95.3949 154.036 95.3182C154.332 95.2415 154.641 95.1875 154.965 95.1562C155.346 95.1165 155.653 95.0795 155.886 95.0455C156.119 95.0085 156.288 94.9545 156.393 94.8835C156.498 94.8125 156.551 94.7074 156.551 94.5682V94.5426C156.551 94.2727 156.465 94.0639 156.295 93.9162C156.127 93.7685 155.889 93.6946 155.579 93.6946C155.252 93.6946 154.992 93.767 154.799 93.9119C154.606 94.054 154.478 94.233 154.416 94.4489L152.737 94.3125C152.822 93.9148 152.989 93.571 153.239 93.2812C153.489 92.9886 153.812 92.7642 154.207 92.608C154.605 92.4489 155.065 92.3693 155.587 92.3693C155.951 92.3693 156.299 92.4119 156.632 92.4972C156.967 92.5824 157.264 92.7145 157.522 92.8935C157.784 93.0724 157.989 93.3026 158.14 93.5838C158.291 93.8622 158.366 94.196 158.366 94.5852V99H156.644V98.0923H156.593C156.488 98.2969 156.347 98.4773 156.171 98.6335C155.995 98.7869 155.784 98.9077 155.536 98.9957C155.289 99.081 155.004 99.1236 154.68 99.1236ZM155.2 97.8707C155.467 97.8707 155.703 97.8182 155.907 97.7131C156.112 97.6051 156.272 97.4602 156.389 97.2784C156.505 97.0966 156.563 96.8906 156.563 96.6605V95.9659C156.507 96.0028 156.428 96.0369 156.329 96.0682C156.232 96.0966 156.123 96.1236 156.001 96.1491C155.879 96.1719 155.757 96.1932 155.634 96.2131C155.512 96.2301 155.401 96.2457 155.302 96.2599C155.089 96.2912 154.903 96.3409 154.744 96.4091C154.585 96.4773 154.461 96.5696 154.373 96.6861C154.285 96.7997 154.241 96.9418 154.241 97.1122C154.241 97.3594 154.33 97.5483 154.509 97.679C154.691 97.8068 154.921 97.8707 155.2 97.8707ZM161.35 90.2727V99H159.534V90.2727H161.35ZM162.564 99V92.4545H164.379V99H162.564ZM163.476 91.6108C163.206 91.6108 162.974 91.5213 162.781 91.3423C162.591 91.1605 162.496 90.9432 162.496 90.6903C162.496 90.4403 162.591 90.2259 162.781 90.0469C162.974 89.8651 163.206 89.7741 163.476 89.7741C163.746 89.7741 163.976 89.8651 164.166 90.0469C164.359 90.2259 164.456 90.4403 164.456 90.6903C164.456 90.9432 164.359 91.1605 164.166 91.3423C163.976 91.5213 163.746 91.6108 163.476 91.6108ZM168.005 99.1065C167.508 99.1065 167.058 98.9787 166.654 98.723C166.254 98.4645 165.936 98.0852 165.7 97.5852C165.467 97.0824 165.35 96.4659 165.35 95.7358C165.35 94.9858 165.471 94.3622 165.713 93.8651C165.954 93.3651 166.275 92.9915 166.676 92.7443C167.079 92.4943 167.521 92.3693 168.001 92.3693C168.367 92.3693 168.673 92.4318 168.917 92.5568C169.164 92.679 169.363 92.8324 169.514 93.017C169.667 93.1989 169.784 93.3778 169.863 93.554H169.919V90.2727H171.73V99H169.94V97.9517H169.863C169.778 98.1335 169.657 98.3139 169.501 98.4929C169.348 98.669 169.147 98.8153 168.9 98.9318C168.656 99.0483 168.358 99.1065 168.005 99.1065ZM168.581 97.6619C168.873 97.6619 169.12 97.5824 169.322 97.4233C169.527 97.2614 169.683 97.0355 169.791 96.7457C169.902 96.456 169.957 96.1165 169.957 95.7273C169.957 95.3381 169.903 95 169.795 94.7131C169.687 94.4261 169.531 94.2045 169.326 94.0483C169.122 93.892 168.873 93.8139 168.581 93.8139C168.282 93.8139 168.031 93.8949 167.826 94.0568C167.622 94.2187 167.467 94.4432 167.362 94.7301C167.257 95.017 167.204 95.3494 167.204 95.7273C167.204 96.108 167.257 96.4446 167.362 96.7372C167.47 97.027 167.625 97.2543 167.826 97.419C168.031 97.581 168.282 97.6619 168.581 97.6619ZM174.849 99.1236C174.431 99.1236 174.059 99.0511 173.732 98.9062C173.406 98.7585 173.147 98.5412 172.957 98.2543C172.769 97.9645 172.675 97.6037 172.675 97.1719C172.675 96.8082 172.742 96.5028 172.876 96.2557C173.009 96.0085 173.191 95.8097 173.421 95.6591C173.651 95.5085 173.913 95.3949 174.205 95.3182C174.501 95.2415 174.81 95.1875 175.134 95.1562C175.515 95.1165 175.822 95.0795 176.055 95.0455C176.288 95.0085 176.457 94.9545 176.562 94.8835C176.667 94.8125 176.719 94.7074 176.719 94.5682V94.5426C176.719 94.2727 176.634 94.0639 176.464 93.9162C176.296 93.7685 176.058 93.6946 175.748 93.6946C175.421 93.6946 175.161 93.767 174.968 93.9119C174.775 94.054 174.647 94.233 174.585 94.4489L172.906 94.3125C172.991 93.9148 173.158 93.571 173.408 93.2812C173.658 92.9886 173.981 92.7642 174.376 92.608C174.773 92.4489 175.234 92.3693 175.756 92.3693C176.12 92.3693 176.468 92.4119 176.8 92.4972C177.136 92.5824 177.433 92.7145 177.691 92.8935C177.952 93.0724 178.158 93.3026 178.309 93.5838C178.46 93.8622 178.535 94.196 178.535 94.5852V99H176.813V98.0923H176.762C176.657 98.2969 176.516 98.4773 176.34 98.6335C176.164 98.7869 175.952 98.9077 175.705 98.9957C175.458 99.081 175.173 99.1236 174.849 99.1236ZM175.369 97.8707C175.636 97.8707 175.871 97.8182 176.076 97.7131C176.281 97.6051 176.441 97.4602 176.558 97.2784C176.674 97.0966 176.732 96.8906 176.732 96.6605V95.9659C176.675 96.0028 176.597 96.0369 176.498 96.0682C176.401 96.0966 176.292 96.1236 176.17 96.1491C176.048 96.1719 175.925 96.1932 175.803 96.2131C175.681 96.2301 175.57 96.2457 175.471 96.2599C175.258 96.2912 175.072 96.3409 174.913 96.4091C174.754 96.4773 174.63 96.5696 174.542 96.6861C174.454 96.7997 174.41 96.9418 174.41 97.1122C174.41 97.3594 174.499 97.5483 174.678 97.679C174.86 97.8068 175.09 97.8707 175.369 97.8707ZM182.115 99.1065C181.618 99.1065 181.168 98.9787 180.764 98.723C180.364 98.4645 180.046 98.0852 179.81 97.5852C179.577 97.0824 179.46 96.4659 179.46 95.7358C179.46 94.9858 179.581 94.3622 179.822 93.8651C180.064 93.3651 180.385 92.9915 180.786 92.7443C181.189 92.4943 181.631 92.3693 182.111 92.3693C182.477 92.3693 182.783 92.4318 183.027 92.5568C183.274 92.679 183.473 92.8324 183.624 93.017C183.777 93.1989 183.894 93.3778 183.973 93.554H184.028V90.2727H185.84V99H184.05V97.9517H183.973C183.888 98.1335 183.767 98.3139 183.611 98.4929C183.457 98.669 183.257 98.8153 183.01 98.9318C182.766 99.0483 182.467 99.1065 182.115 99.1065ZM182.69 97.6619C182.983 97.6619 183.23 97.5824 183.432 97.4233C183.636 97.2614 183.793 97.0355 183.901 96.7457C184.011 96.456 184.067 96.1165 184.067 95.7273C184.067 95.3381 184.013 95 183.905 94.7131C183.797 94.4261 183.641 94.2045 183.436 94.0483C183.232 93.892 182.983 93.8139 182.69 93.8139C182.392 93.8139 182.141 93.8949 181.936 94.0568C181.732 94.2187 181.577 94.4432 181.472 94.7301C181.367 95.017 181.314 95.3494 181.314 95.7273C181.314 96.108 181.367 96.4446 181.472 96.7372C181.58 97.027 181.734 97.2543 181.936 97.419C182.141 97.581 182.392 97.6619 182.69 97.6619ZM190.075 99.1278C189.402 99.1278 188.822 98.9915 188.336 98.7188C187.853 98.4432 187.481 98.054 187.22 97.5511C186.959 97.0455 186.828 96.4474 186.828 95.7571C186.828 95.0838 186.959 94.4929 187.22 93.9844C187.481 93.4759 187.849 93.0795 188.324 92.7955C188.801 92.5114 189.361 92.3693 190.003 92.3693C190.434 92.3693 190.836 92.4389 191.209 92.5781C191.584 92.7145 191.91 92.9205 192.189 93.196C192.47 93.4716 192.689 93.8182 192.845 94.2358C193.001 94.6506 193.079 95.1364 193.079 95.6932V96.1918H187.552V95.0668H191.371C191.371 94.8054 191.314 94.5739 191.2 94.3722C191.086 94.1705 190.929 94.0128 190.727 93.8991C190.528 93.7827 190.297 93.7244 190.032 93.7244C189.757 93.7244 189.513 93.7884 189.299 93.9162C189.089 94.0412 188.924 94.2102 188.805 94.4233C188.686 94.6335 188.625 94.8679 188.622 95.1264V96.196C188.622 96.5199 188.682 96.7997 188.801 97.0355C188.923 97.2713 189.095 97.4531 189.317 97.581C189.538 97.7088 189.801 97.7727 190.105 97.7727C190.307 97.7727 190.491 97.7443 190.659 97.6875C190.826 97.6307 190.97 97.5455 191.089 97.4318C191.209 97.3182 191.299 97.179 191.362 97.0142L193.041 97.125C192.956 97.5284 192.781 97.8807 192.517 98.1818C192.255 98.4801 191.917 98.7131 191.503 98.8807C191.091 99.0455 190.615 99.1278 190.075 99.1278ZM196.193 90.2727L196.027 96.3835H194.467L194.297 90.2727H196.193ZM195.247 99.1108C194.966 99.1108 194.724 99.0114 194.523 98.8125C194.321 98.6108 194.221 98.3693 194.224 98.0881C194.221 97.8097 194.321 97.571 194.523 97.3722C194.724 97.1733 194.966 97.0739 195.247 97.0739C195.517 97.0739 195.754 97.1733 195.959 97.3722C196.163 97.571 196.267 97.8097 196.27 98.0881C196.267 98.2756 196.217 98.4474 196.121 98.6037C196.027 98.7571 195.903 98.8807 195.75 98.9744C195.596 99.0653 195.429 99.1108 195.247 99.1108Z" fill="#D2D2D2"/>
<path d="M22.0707 75V38.6364H46.5735V44.9751H29.7589V53.6399H45.3129V59.9787H29.7589V68.6612H46.6445V75H22.0707ZM51.4018 75V70.4901L64.7541 53.9595V53.7642H51.8635V47.7273H73.8627V52.6456L61.3272 68.7678V68.9631H74.3244V75H51.4018Z" fill="#999999"/>
<path d="M90.0277 77V40.6364H104.587C107.263 40.6364 109.494 41.0329 111.281 41.826C113.069 42.6191 114.412 43.7199 115.312 45.1286C116.211 46.5253 116.661 48.1352 116.661 49.9581C116.661 51.3786 116.377 52.6274 115.809 53.7045C115.241 54.7699 114.46 55.6458 113.465 56.3324C112.483 57.0071 111.358 57.4865 110.092 57.7706V58.1257C111.477 58.1849 112.773 58.5755 113.98 59.2976C115.199 60.0196 116.188 61.0317 116.945 62.3338C117.703 63.6241 118.082 65.1629 118.082 66.9503C118.082 68.8797 117.602 70.602 116.643 72.1172C115.696 73.6205 114.294 74.8101 112.435 75.6861C110.577 76.562 108.286 77 105.564 77H90.0277ZM97.7159 70.7145H103.984C106.126 70.7145 107.689 70.3061 108.671 69.4893C109.654 68.6607 110.145 67.5599 110.145 66.1868C110.145 65.1806 109.902 64.2929 109.417 63.5234C108.932 62.754 108.239 62.1503 107.339 61.7124C106.452 61.2744 105.392 61.0554 104.161 61.0554H97.7159V70.7145ZM97.7159 55.853H103.415C104.469 55.853 105.404 55.6695 106.221 55.3026C107.049 54.9238 107.701 54.3911 108.174 53.7045C108.659 53.018 108.902 52.1953 108.902 51.2365C108.902 49.9226 108.434 48.8632 107.499 48.0582C106.576 47.2533 105.262 46.8509 103.558 46.8509H97.7159V55.853ZM129.719 77.5149C127.979 77.5149 126.429 77.2131 125.067 76.6094C123.706 75.9938 122.629 75.0883 121.836 73.8928C121.055 72.6854 120.664 71.1821 120.664 69.3828C120.664 67.8677 120.942 66.5952 121.498 65.5653C122.055 64.5355 122.812 63.7069 123.771 63.0795C124.73 62.4522 125.819 61.9787 127.038 61.6591C128.269 61.3395 129.559 61.1146 130.909 60.9844C132.495 60.8187 133.773 60.6648 134.744 60.5227C135.715 60.3688 136.419 60.1439 136.857 59.848C137.295 59.5521 137.514 59.1141 137.514 58.5341V58.4276C137.514 57.303 137.159 56.433 136.449 55.8175C135.75 55.2019 134.756 54.8942 133.466 54.8942C132.104 54.8942 131.021 55.196 130.216 55.7997C129.412 56.3916 128.879 57.1373 128.618 58.0369L121.623 57.4688C121.978 55.8116 122.676 54.3793 123.718 53.1719C124.76 51.9527 126.103 51.0175 127.748 50.3665C129.406 49.7036 131.323 49.3722 133.501 49.3722C135.016 49.3722 136.466 49.5497 137.851 49.9048C139.248 50.2599 140.485 50.8104 141.562 51.5561C142.651 52.3018 143.51 53.2607 144.137 54.4325C144.764 55.5926 145.078 56.9834 145.078 58.6051V77H137.905V73.218H137.692C137.254 74.0703 136.668 74.822 135.934 75.473C135.2 76.1122 134.318 76.6153 133.288 76.9822C132.258 77.3374 131.069 77.5149 129.719 77.5149ZM131.885 72.2947C132.998 72.2947 133.981 72.0758 134.833 71.6378C135.685 71.188 136.354 70.5843 136.839 69.8267C137.325 69.0691 137.567 68.2109 137.567 67.2521V64.358C137.331 64.5118 137.005 64.6539 136.591 64.7841C136.188 64.9025 135.733 65.0149 135.224 65.1214C134.715 65.2161 134.206 65.3049 133.697 65.3878C133.188 65.4588 132.726 65.5239 132.312 65.5831C131.424 65.7133 130.648 65.9205 129.986 66.2045C129.323 66.4886 128.808 66.8733 128.441 67.3587C128.074 67.8321 127.89 68.424 127.89 69.1342C127.89 70.1641 128.263 70.9512 129.009 71.4957C129.767 72.0284 130.725 72.2947 131.885 72.2947ZM157.51 61.233V77H149.946V49.7273H157.155V54.5391H157.475C158.078 52.9529 159.09 51.6982 160.511 50.7749C161.931 49.8397 163.654 49.3722 165.678 49.3722C167.572 49.3722 169.223 49.7865 170.632 50.6151C172.04 51.4437 173.135 52.6274 173.916 54.1662C174.698 55.6932 175.088 57.5161 175.088 59.6349V77H167.524V60.9844C167.536 59.3153 167.11 58.0133 166.246 57.0781C165.382 56.1312 164.192 55.6577 162.677 55.6577C161.659 55.6577 160.759 55.8767 159.978 56.3146C159.209 56.7526 158.605 57.3918 158.167 58.2322C157.741 59.0608 157.522 60.0611 157.51 61.233ZM186.903 69.152L186.921 60.0788H188.022L196.758 49.7273H205.44L193.704 63.4347H191.911L186.903 69.152ZM180.05 77V40.6364H187.614V77H180.05ZM197.095 77L189.07 65.1214L194.112 59.777L205.955 77H197.095Z" fill="#999999"/>
</g>
<defs>
<linearGradient id="paint0_linear_0_1" x1="208" y1="58" x2="84" y2="58" gradientUnits="userSpaceOnUse">
<stop offset="0.240385" stop-color="#040404"/>
<stop offset="0.716346" stop-color="#0C4B19"/>
</linearGradient>
<clipPath id="clip0_0_1">
<rect width="194" height="101" fill="white" transform="translate(15 19)"/>
</clipPath>
</defs>
</svg>
